<?xml version="1.0" encoding="UTF-8" standalone="no"?>
<svg width="24px" height="24px" viewBox="0 0 24 24" version="1.1" xmlns="http://www.w3.org/2000/svg" xmlns:xlink="http://www.w3.org/1999/xlink" xmlns:sketch="http://www.bohemiancoding.com/sketch/ns">
    <!-- Generator: sketchtool 3.4 (375) - http://www.bohemiancoding.com/sketch -->
    <title>M Logo</title>
    <desc>Created with sketchtool.</desc>
    <defs></defs>
    <g id="Page-1" stroke="none" stroke-width="1" fill="none" fill-rule="evenodd" sketch:type="MSPage">
        <g id="material" sketch:type="MSArtboardGroup" transform="translate(-1712.000000, -253.000000)" fill="#00A3E0">
            <g id="M-Logo" sketch:type="MSLayerGroup" transform="translate(1712.000000, 253.000000)">
                <path d="M16.953,4 C19.391,5.61 21,8.373 21,11.513 C21,15.127 18.869,18.242 15.795,19.673 L15.002,16.712 C16.796,15.674 18.005,13.735 18.005,11.513 C18.005,10.502 17.753,9.549 17.312,8.713 L13.251,14.513 L10.749,14.513 L6.688,8.713 C6.247,9.549 5.995,10.502 5.995,11.513 C5.995,13.735 7.204,15.674 8.998,16.712 L8.205,19.673 C5.131,18.242 3,15.127 3,11.513 C3,8.373 4.609,5.61 7.046,4 L12,11.072 L16.953,4" id="Fill-1" sketch:type="MSShapeGroup"></path>
                <path d="M12,0 C5.373,0 0,5.373 0,12 C0,18.627 5.373,24 12,24 C18.627,24 24,18.627 24,12 C24,5.373 18.627,0 12,0 L12,0 Z M12,23 C5.925,23 1,18.075 1,12 C1,5.925 5.925,1 12,1 C18.075,1 23,5.925 23,12 C23,18.075 18.075,23 12,23 L12,23 Z" id="Fill-2" sketch:type="MSShapeGroup"></path>
            </g>
        </g>
    </g>
</svg>